Coordinates
version=1
nRows=27
nColumns=19
inDegrees=yes

Units are S.I. units (second, meters, Newtons, ...)
Angles are in degrees.

endheader
time	pelvis_tilt	pelvis_list	pelvis_rotation	pelvis_tx	pelvis_ty	pelvis_tz	hip_flexion_r	hip_adduction_r	hip_rotation_r	knee_angle_r	ankle_angle_r	subtalar_angle_r	hip_flexion_l	hip_adduction_l	hip_rotation_l	knee_angle_l	ankle_angle_l	subtalar_angle_l
      1.25000000	      6.74606572	     -1.28094856	     -2.85147804	      0.58503690	      1.01806000	      0.04066020	    -24.87078419	      0.98114493	      2.28012420	     -5.62686706	     11.62751365	      0.00000038	     16.44793222	     -2.19193908	     -4.63300173	     -2.08265805	     -2.59369130	     -0.00000165
      1.26666667	      6.60722929	     -1.04096462	     -2.92410672	      0.58724257	      1.01675569	      0.03883723	    -25.11700316	      0.54483302	      2.44318087	     -7.34136775	     11.81039546	      0.00000077	     16.96920092	     -1.75544655	     -4.19872125	     -4.56753671	     -3.48120235	     -0.00000191
      1.28333333	      6.42519469	     -1.21870153	     -3.11788951	      0.58828734	      1.01587768	      0.03753116	    -24.81592581	      0.52211876	      2.82540431	     -9.88871295	     11.82776336	      0.00000118	     17.46046521	     -1.84370669	     -3.96720246	     -7.00767852	     -4.73293280	     -0.00000204
      1.30000000	      6.36172532	     -1.10645144	     -3.34836432	      0.59089680	      1.01579113	      0.03601614	    -24.72339049	      0.16001403	      3.04612359	    -12.30818298	     11.29046628	      0.00000181	     17.71845008	     -1.66244400	     -3.97397919	     -9.53220453	     -5.69831951	     -0.00000222
      1.31666667	      6.53178987	     -0.89285644	     -3.52241076	      0.59399517	      1.01660655	      0.03425951	    -24.32505150	     -0.27952000	      3.14031437	    -15.76519787	     10.48437995	      0.00000243	     17.55114230	     -1.36403198	     -4.08728722	    -11.84420543	     -6.32936741	     -0.00000225
      1.33333333	      6.78325775	     -0.69889194	     -3.57041127	      0.59725994	      1.01800853	      0.03229581	    -23.50441634	     -0.65827706	      2.95023473	    -20.06455243	      9.12467284	      0.00000329	     17.13448201	     -1.05596970	     -4.11527010	    -13.95494950	     -6.49531801	     -0.00000226
      1.35000000	      7.24591992	     -0.43836260	     -3.46058189	      0.60062951	      1.02016785	      0.02980088	    -22.34863820	     -1.13465884	      2.20869058	    -25.16523587	      6.90496202	      0.00000423	     16.26383109	     -0.60705424	     -4.01428717	    -15.71709210	     -6.26775867	     -0.00000245
      1.36666667	      7.56949752	     -0.11645428	     -3.22557271	      0.60367610	      1.02225949	      0.02659137	    -20.40141451	     -1.80066148	      0.91846100	    -31.07576407	      3.70978735	      0.00000520	     15.30197409	     -0.04408270	     -3.87665607	    -17.02845695	     -5.76008520	     -0.00000239
      1.38333333	      7.72733913	      0.29268920	     -3.07282578	      0.60603365	      1.02418090	      0.02309855	    -17.71485386	     -2.85269482	     -0.70900441	    -37.43140370	     -0.36255038	      0.00000586	     14.29074649	      0.60541671	     -3.85205757	    -17.88905300	     -5.03219395	     -0.00000221
      1.40000000	      7.80484671	      0.75022646	     -2.92500186	      0.60759433	      1.02604505	      0.01971469	    -14.69550823	     -4.17497015	     -2.38051538	    -43.57978100	     -4.80896396	      0.00000543	     13.23786082	      1.31639863	     -3.79474583	    -18.45236704	     -4.10733993	     -0.00000213
      1.41666667	      8.03146440	      1.22480485	     -2.83795119	      0.60881547	      1.02861669	      0.01614970	    -11.88295272	     -5.68093459	     -3.81604628	    -49.00460087	     -8.68408235	      0.00000422	     11.66143357	      2.09720651	     -3.78418995	    -18.27558483	     -3.27538970	     -0.00000204
      1.43333333	      8.15632515	      1.76715098	     -3.02437510	      0.60856817	      1.03088420	      0.01296842	     -8.77147263	     -7.23658098	     -4.48752416	    -54.16909793	    -10.73422984	      0.00000255	     10.16225397	      2.91195087	     -3.99805342	    -17.87625238	     -2.48646777	     -0.00000199
      1.45000000	      8.28465419	      2.10720477	     -3.20280699	      0.60801624	      1.03350067	      0.00978909	     -5.79625187	     -8.37227496	     -4.65233697	    -58.62157637	    -10.79087425	      0.00000046	      8.61938952	      3.54291252	     -4.12919478	    -17.39298754	     -1.69672989	     -0.00000201
      1.46666667	      8.31510962	      1.98427124	     -2.65903367	      0.60839249	      1.03682915	      0.00625790	     -3.29888045	     -8.66401662	     -5.22579203	    -61.88438045	     -9.45320088	     -0.00000141	      6.96795231	      3.74874845	     -3.48703793	    -16.62085472	     -1.03035196	     -0.00000183
      1.48333333	      8.46638193	      1.89491069	     -2.40318914	      0.60744713	      1.04015255	      0.00357928	     -0.77467995	     -8.78791025	     -5.24165972	    -64.68475950	     -7.32147994	     -0.00000263	      5.10832820	      3.90933377	     -3.10918552	    -15.52732399	     -0.56718699	     -0.00000170
      1.50000000	      8.37398470	      1.66821477	     -1.86930506	      0.60625592	      1.04278712	      0.00081930	      1.81991770	     -8.55410898	     -5.37933229	    -66.66350155	     -5.10973977	     -0.00000326	      3.66435309	      3.89812841	     -2.41730597	    -14.71464279	     -0.00307273	     -0.00000163
      1.51666667	      8.35027861	      1.33602070	     -1.20074246	      0.60483864	      1.04532674	     -0.00169777	      4.15789902	     -8.10510645	     -5.64922423	    -67.76086359	     -3.21896531	     -0.00000329	      2.02739563	      3.72893933	     -1.60455747	    -13.62017189	      0.42951612	     -0.00000151
      1.53333333	      8.35486603	      1.03325611	     -0.63497168	      0.60351547	      1.04755621	     -0.00408502	      6.33327096	     -7.57674603	     -5.72070217	    -68.04161746	     -1.77244694	     -0.00000322	      0.27098596	      3.55569312	     -0.92725219	    -12.34135138	      0.77262701	     -0.00000147
      1.55000000	      8.18651413	      0.92507350	     -0.23084848	      0.60109200	      1.04864892	     -0.00601448	      8.75585600	     -7.21843983	     -5.62489730	    -67.80436198	     -0.69387808	     -0.00000248	     -1.07909796	      3.54159292	     -0.47193618	    -11.36822134	      1.19232451	     -0.00000130
      1.56666667	      8.14097784	      0.54884301	      0.56777840	      0.59964667	      1.04999408	     -0.00810637	     10.53171486	     -6.59835422	     -6.03581889	    -66.42931683	     -0.01937493	     -0.00000191	     -2.68170105	      3.17981077	      0.39034189	    -10.24584276	      1.60412855	     -0.00000110
      1.58333333	      8.06121245	      0.34300649	      1.03314517	      0.59756718	      1.05055716	     -0.00965156	     12.33432002	     -6.17081337	     -6.16019145	    -64.50146491	      0.46067399	     -0.00000123	     -4.09214636	      2.97461945	      0.92540411	     -9.36960202	      2.11650913	     -0.00000090
      1.60000000	      8.03661165	      0.12380081	      1.29439469	      0.59634057	      1.05090540	     -0.01090448	     13.79133980	     -5.71197776	     -6.14119216	    -61.77337234	      0.81308394	     -0.00000092	     -5.78186104	      2.74028412	      1.28484704	     -8.14101734	      2.51010999	     -0.00000077
      1.61666667	      7.89781691	      0.15272268	      1.65836577	      0.59337501	      1.05042762	     -0.01217513	     15.24345938	     -5.67198183	     -6.39223408	    -58.47412287	      1.11991857	     -0.00000077	     -7.08233531	      2.74229199	      1.81752961	     -7.22103439	      2.90480835	     -0.00000066
      1.63333333	      7.53759292	      0.10335302	      1.79404436	      0.59131275	      1.04897946	     -0.01309809	     16.63188124	     -5.61021042	     -6.70704232	    -54.48775497	      1.41403565	     -0.00000121	     -8.11538952	      2.69132671	      2.05210100	     -6.50865057	      3.52815031	     -0.00000056
      1.65000000	      7.33490903	      0.36980578	      1.72983288	      0.58886280	      1.04728789	     -0.01397661	     17.61827661	     -5.92167906	     -7.03663829	    -49.86855980	      1.62511032	     -0.00000216	     -9.37520835	      3.00680246	      2.07442212	     -5.65088268	      4.02059595	     -0.00000040
      1.66666667	      7.27215638	      0.48928953	      1.80833885	      0.58727819	      1.04561862	     -0.01445178	     17.93967162	     -6.12624433	     -7.96454696	    -44.39552966	      1.62389815	     -0.00000316	    -10.88408062	      3.08580418	      2.18653895	     -4.68515795	      4.50802012	     -0.00000017
      1.68333333	      7.02645618	      0.89230798	      1.71023251	      0.58529853	      1.04280125	     -0.01501677	     18.39508165	     -6.54003521	     -8.72303552	    -38.67324586	      1.46748240	     -0.00000391	    -11.97558789	      3.51981389	      2.22035279	     -4.18399187	      5.24329055	      0.00000003
